<svg xmlns="http://www.w3.org/2000/svg" viewBox="0 0 512 512">
  <defs>
    <linearGradient id="bg" x1="0" y1="0" x2="1" y2="1">
      <stop offset="0" stop-color="#E8543C"/>
      <stop offset="1" stop-color="#C63A24"/>
    </linearGradient>
  </defs>
  <rect width="512" height="512" rx="118" fill="url(#bg)"/>
  <rect x="150" y="82" width="212" height="148" rx="42" fill="#F0A73F"/>
  <path d="M225 222 L232 268 L262 222 Z" fill="#F0A73F"/>
  <path d="M256 190c-4 0-38-22-38-46 0-13 10-23 23-23 6 0 12 3 15 8 3-5 9-8 15-8 13 0 23 10 23 23 0 24-34 46-38 46z" fill="#FBF3E6"/>
  <path d="M186 232c-8 10-8 18 0 28s8 18 0 28" fill="none" stroke="#F0A73F" stroke-width="20" stroke-linecap="round"/>
  <path d="M118 318 h276 a138 108 0 0 1 -276 0 z" fill="#FBF3E6"/>
  <rect x="219" y="415" width="74" height="26" rx="13" fill="#FBF3E6"/>
</svg>
